<?xml version="1.0" encoding="UTF-8" standalone="no"?>
<!-- Created with Inkscape (http://www.inkscape.org/) -->

<svg
   xmlns:dc="http://purl.org/dc/elements/1.1/"
   xmlns:cc="http://creativecommons.org/ns#"
   xmlns:rdf="http://www.w3.org/1999/02/22-rdf-syntax-ns#"
   xmlns:svg="http://www.w3.org/2000/svg"
   xmlns="http://www.w3.org/2000/svg"
   xmlns:sodipodi="http://sodipodi.sourceforge.net/DTD/sodipodi-0.dtd"
   xmlns:inkscape="http://www.inkscape.org/namespaces/inkscape"
   width="285.74774mm"
   height="287.95331mm"
   viewBox="0 0 1012.492 1020.307"
   id="svg3553"
   version="1.1"
   inkscape:version="0.91 r13725"
   sodipodi:docname="quad_4education_page.svg">
  <defs
     id="defs3555" />
  <sodipodi:namedview
     id="base"
     pagecolor="#ffffff"
     bordercolor="#666666"
     borderopacity="1.0"
     inkscape:pageopacity="0.0"
     inkscape:pageshadow="2"
     inkscape:zoom="0.69479179"
     inkscape:cx="526.83924"
     inkscape:cy="539.47899"
     inkscape:document-units="px"
     inkscape:current-layer="layer1"
     showgrid="false"
     fit-margin-top="0"
     fit-margin-left="0"
     fit-margin-right="0"
     fit-margin-bottom="0"
     inkscape:window-width="1381"
     inkscape:window-height="915"
     inkscape:window-x="373"
     inkscape:window-y="43"
     inkscape:window-maximized="0"
     showguides="true"
     inkscape:guide-bbox="true" />
  <metadata
     id="metadata3558">
    <rdf:RDF>
      <cc:Work
         rdf:about="">
        <dc:format>image/svg+xml</dc:format>
        <dc:type
           rdf:resource="http://purl.org/dc/dcmitype/StillImage" />
        <dc:title></dc:title>
      </cc:Work>
    </rdf:RDF>
  </metadata>
  <g
     inkscape:label="Layer 1"
     inkscape:groupmode="layer"
     id="layer1"
     transform="translate(373.5612,94.191341)">
    <path
       style="fill:#806600;fill-opacity:0.94117647"
       d="m 406.35106,480.98222 -6.6472,5.57045 c -20.0209,16.77923 -37.6847,21.23776 -63.6826,16.07149 -15.6666,-3.11321 -21.9115,-3.26751 -31.5262,-0.77414 -11.2942,2.92892 -16.5503,7.65414 -38.3768,34.50207 -10.9556,13.47608 -21.3871,25.43252 -23.1813,26.56767 -2.4761,1.56661 -3.9065,1.76397 -5.9389,0.8181 -1.4725,-0.68538 -4.2679,-1.24791 -6.2123,-1.24791 -4.5172,0 -10.2682,6.83493 -16.7615,19.92269 -5.4226,10.92979 -9.3891,14.10461 -17.5276,14.02746 -3.811,-0.0362 -7.1184,-1.15763 -11.8879,-4.03192 -1.8605,-1.1212 -3.6764,-2.51902 -5.9369,-4.67174 0.1321,0.62584 0.3082,1.28432 0.1001,1.79495 -0.2856,0.69914 -1.3527,0.87652 -1.3527,1.65819 0,1.23591 2.0666,2.44244 1.3527,3.31638 -0.714,0.87393 -1.6976,-1.65818 -2.7072,-1.65818 -0.4515,0 0,1.10546 0,1.65818 0,0.55272 -0.2019,1.16381 0,1.65819 0.2855,0.69914 1.5565,0.91664 1.3545,1.65818 -0.077,0.28135 -0.1353,0.4663 -0.2074,0.72288 10.131,10.77831 20.5112,20.72662 30.7921,29.39074 50.1037,42.22476 109.0813,69.26935 167.9145,76.99715 5.6178,0.7379 11.8229,1.56862 13.7891,1.84624 9.0605,1.27929 64.4226,-0.38591 75.5845,-2.2736 14.4965,-2.45159 40.7997,-8.78478 46.985,-11.31185 2.528,-1.03281 3.3421,-1.59769 1.8095,-1.25523 -7.7569,1.73324 -44.0196,6.84442 -57.4764,8.10046 -21.9363,2.0475 -55.258,1.81233 -65.6298,-0.46155 -14.1745,-3.10758 -19.2673,-7.65306 -14.5731,-13.00665 1.6168,-1.84386 4.2821,-2.63484 11.0062,-3.26754 11.0845,-1.043 15.2072,-3.42939 18.6328,-10.78191 1.8864,-4.04912 3.9485,-6.40657 7.3553,-8.41306 8.2664,-4.86862 22.2505,-9.09912 38.5942,-11.6757 13.8782,-2.18789 19.2189,-2.39853 42.9174,-1.68017 46.9203,1.42227 52.2046,-0.99739 83.2671,-38.13593 7.529,-9.00186 13.4867,-16.36699 13.2384,-16.36699 -0.2483,0 -2.875,1.8938 -5.8353,4.20775 -22.4129,17.5196 -40.4064,22.28343 -66.2601,17.54409 -14.7024,-2.69518 -36.9187,-2.98254 -46.8812,-0.60808 -9.9824,2.37921 -18.8362,8.06342 -41.7941,26.82897 -11.4708,9.37604 -21.8561,17.0459 -23.0795,17.0459 -1.2235,0 -3.709,-0.90497 -5.5221,-2.0123 -6.4973,-3.96781 -12.5074,-0.0342 -22.056,14.43285 -6.552,9.92675 -10.9991,12.81098 -23.1974,15.0507 -8.6704,1.59195 -13.8573,1.05967 -25.1104,-2.5813 -21.426,-6.93252 -29.4831,-21.68139 -13.2445,-24.24524 2.964,-0.46796 7.1349,-1.46566 9.2686,-2.21498 3.9584,-1.39015 9.9088,-8.32885 9.9088,-11.5536 0,-3.35109 4.5966,-7.22036 17.8749,-15.0507 16.8745,-9.95119 34.734,-18.63439 45.0558,-21.90569 4.7083,-1.49221 14.4276,-3.05521 23.3788,-3.7584 33.0191,-2.59398 34.5929,-2.92571 53.267,-11.24346 21.0436,-9.3731 34.2914,-16.88685 42.6481,-24.18662 8.5079,-7.43195 10.0316,-9.87657 3.9299,-6.30552 -6.617,3.87265 -19.8982,7.87632 -33.4273,10.07858 -8.6048,1.4007 -16.5625,1.63649 -33.7325,0.99881 -33.3351,-1.23805 -45.6288,1.80984 -65.1231,16.14232 -11.8963,8.74634 -35.7336,29.1658 -45.0279,38.57063 -6.7117,6.79157 -9.8829,8.23768 -13.5616,6.18584 -6.9984,-3.90336 -13.3967,0.98879 -21.5035,16.44516 -4.9398,9.41801 -6.9896,10.90399 -15.048,10.90399 -17.7989,0 -41.4649,-14.93754 -41.4649,-26.17205 0,-5.27166 1.9282,-6.93842 10.0864,-8.7232 8.9141,-1.95009 13.2618,-5.34259 16.0972,-12.56219 2.5316,-6.4459 4.8938,-9.02935 12.628,-13.80767 11.3713,-7.02528 15.0466,-7.80022 41.8799,-8.84531 27.8527,-1.08474 34.9938,-2.51765 52.6806,-10.57187 25.3894,-11.56172 47.5101,-27.3358 68.8296,-49.08145 2.1028,-2.14484 -2.0448,-0.0759 -18.9918,9.47782 -24.0876,13.57914 -22.8267,13.28853 -58.0868,13.43158 -27.9994,0.11352 -31.3271,0.35506 -38.5823,2.80598 -14.1331,4.77432 -32.7074,18.38108 -50.957,37.32758 -3.8825,4.03078 -7.8113,7.65229 -8.7299,8.04675 -0.9186,0.39446 -3.417,-0.0202 -5.5519,-0.92067 -6.9373,-2.92582 -13.2168,2.38896 -20.3106,17.18753 -2.1702,4.52741 -4.6197,8.91581 -5.4422,9.75133 -5.9383,6.03304 -25.3568,-1.00996 -33.6068,-12.18854 -4.1686,-5.64821 -6.339,-13.54809 -5.4024,-19.65896 1.0686,-6.97267 3.4412,-9.27735 11.483,-11.15309 11.4508,-2.67093 16.6739,-7.17165 18.2018,-15.6881 0.7182,-4.00295 4.3662,-7.52867 15.818,-15.28514 17.4338,-11.80814 31.2599,-16.97957 56.1776,-21.00943 20.1653,-3.26125 32.4138,-6.50015 45.3591,-11.99808 19.7063,-8.36923 28.5896,-15.82701 41.3574,-34.72673 l 6.5333,-9.67319 z"
       id="path3626"
       inkscape:connector-curvature="0"
       inkscape:export-xdpi="300"
       inkscape:export-ydpi="300" />
    <path
       style="fill:#008000"
       d="m -160.7658,-41.656505 -1.4918,2.19153 c -3.1012,4.55814 -53.4085,89.48659 -57.1094,96.41148 -4.9569,9.27463 -5.2802,11.63187 -2.4665,17.99373 6.9041,15.61074 23.7703,32.183645 48.5761,47.730995 8.5658,5.36876 16.6444,9.38343 30.9337,15.37389 28.4707,11.93558 45.007604,24.27744 58.622104,43.75131 6.6751,9.54804 13.3361,14.09836 24.4598,16.70737 8.8764,2.08192 26.7959,1.56585 39.3227,-1.13248 4.8211,-1.03849 9.7507,-2.43257 10.9544993,-3.09807 1.9117,-1.05688 2.2684,-1.68117 2.8175,-4.92502 0.3711,-2.19162 1.2153,-4.37334 2.0594,-5.32285 1.326,-1.49175 1.9421,-1.60283 8.4524,-1.52755 8.0159007,0.0927 16.4359007,1.9356 40.1848007,8.79656 16.8102,4.85639 27.4742,7.4159 36.6482,8.79518 3.6158,0.54361 6.6751,1.02163 6.798,1.0618 0.123,0.0402 0.077,-0.35886 -0.1015,-0.88714 -0.5172,-1.52772 -121.2789,-188.022435 -123.0661,-190.053455 -0.9508,-1.08051 -2.8207,-0.002 -25.6338,14.79309 l -24.608,15.95885 -3.5671,-3.74539 c -1.9615,-2.06035 -14.977904,-16.41012 -28.924504,-31.88858 -13.9466,-15.47847 -29.2949,-32.3831 -34.1084,-37.5649 l -8.7521,-9.42035 z m -99.2483,92.50253 -12.7643,21.42862 c -12.2641,20.58856 -54.2804,92.297925 -65.3209,111.418055 l 0,1.53864 0,0.87328 c -0.1818,-0.2061 -0.5132,0 -0.7704,0 l -0.6164,0 c -0.6937,1.21194 -1.2063,2.11573 -1.2852,2.283 -0.4495,0.95212 1.23,0.26135 6.0935,-2.50617 11.0762,-6.3027 23.4747,-10.54645 37.0788,-12.69029 9.542,-1.50371 24.6325,-1.53399 30.2355,-0.061 7.734,2.03327 9.8667,4.1723 8.5771,8.60111 -0.3903,1.34096 -0.5277,3.08651 -0.3056,3.87987 0.4977,1.77722 4.1627,3.96003 8.9281,5.31731 2.8195,0.80303 7.3702,0.97183 21.1239,0.78317 16.5466,-0.22695 17.9179,-0.34755 24.4183,-2.15825 21.025,-5.85651 35.1461,-7.55727 51.1479,-6.16008 10.332,0.90213 14.2276,2.00925 18.0166,5.12047 3.0119,2.47316 3.2818,2.31981 4.4744,-2.54777 0.8625,-3.51981 0.3957,-10.02862 -0.9488,-13.24059 -0.5564,-1.32893 -2.1654,-4.00374 -3.5758,-5.94383 -6.2197,-8.55547 -13.9186,-13.8947 -29.7366,-20.62467 -4.997,-2.12605 -11.2666,-5.10879 -13.9334,-6.6286 -22.521,-12.83535 -40.5637,-36.9883 -49.0334,-65.640165 l -2.0814,-7.0403 -12.7802,-7.01535 c -7.0293,-3.85867 -13.7172,-7.45894 -14.8615,-8.0009 l -2.0802,-0.98557 z"
       id="path4521"
       inkscape:export-xdpi="300"
       inkscape:export-ydpi="300"
       inkscape:connector-curvature="0" />
    <path
       style="fill:none;fill-rule:evenodd;stroke:#0d0d96;stroke-width:17.3920536;stroke-linecap:round;stroke-linejoin:miter;stroke-miterlimit:4;stroke-dasharray:none;stroke-opacity:1"
       d="m -310.94994,642.61532 c 20.0188,-4.29787 40.5033,-7.8788 63.1054,-4.78045 20.2589,5.50855 40.9827,13.66112 59.2111,24.63096 20.6439,9.54324 40.3895,15.28359 62.5356,24.42522 28.126095,14.31169 57.682795,19.3893 90.125095,26.09329 22.3814,2.51225 44.8845996,4.33159 67.4092,3.68957 10.0394,0.66851 19.9556,2.45256 29.9536,3.50234"
       id="path4581"
       inkscape:connector-curvature="0"
       sodipodi:nodetypes="ccccccc"
       inkscape:export-xdpi="300"
       inkscape:export-ydpi="300" />
    <path
       style="fill:none;fill-rule:evenodd;stroke:#0d0d96;stroke-width:24.11471367;stroke-linecap:round;stroke-linejoin:miter;stroke-miterlimit:4;stroke-dasharray:none;stroke-opacity:1"
       d="m 10.061084,649.1351 c -16.7954999,-36.50612 -37.9004,-73.14162 -73.625297,-99.76478 -20.1781,-15.55615 -42.736797,-29.54247 -68.128597,-38.738 -28.9932,-9.09777 -63.7458,-13.25955 -91.8563,0.0797 -12.9699,6.52109 -22.7121,16.85208 -28.5447,28.31707 21.9372,0.0153 47.322,6.36153 57.4198,23.87809 3.4258,11.19572 1.5992,26.68256 -13.0622,31.75107 -2.7135,1.07455 -5.5745,1.87656 -8.4777,2.52205"
       id="path4599"
       inkscape:connector-curvature="0"
       inkscape:export-xdpi="300"
       inkscape:export-ydpi="300" />
    <path
       style="fill:#000000"
       d="m 379.56325,-45.190915 c -5.621,-0.0244 -11.1717,1.32013 -16.5517,4.01544 -12.7845,6.40481 -21.085,19.41803 -21.8573,34.26729 -0.9007,17.31597 9.2632,33.65496 24.8045,39.87455 l 1.5183,0.60754 0,6.504 c 0,3.57725 -0.1728,7.50223 -0.3844,8.72233 -0.7033,4.05488 -2.5242,6.29133 -5.8834,7.22545 -0.7949,0.22101 -8.5114,0.73415 -17.1476,1.13982 -8.6361,0.40571 -17.0081,0.82821 -18.6036,0.93903 l -2.9006,0.20152 -1.3438,-2.40454 c -1.6355,-2.92667 -4.7153,-6.22745 -7.2049,-7.72127 -4.6044,-2.76268 -12.5114,-3.39945 -17.1859,-1.38445 -6.6341,2.85974 -11.4449,7.88367 -13.7343,14.34283 -0.6415,1.80999 -0.7864,3.00823 -0.7864,6.51709 0,3.50884 0.1449,4.70784 0.7864,6.51783 2.4524,6.91916 8.2267,12.65809 14.8534,14.76264 4.9018,1.55671 11.7844,0.75911 16.1875,-1.87583 2.5058,-1.49958 5.3694,-4.57929 7.0429,-7.57524 l 1.3865,-2.4827 2.0073,0.006 c 5.1222,0.0131 32.5036,1.50605 33.5459,1.82917 3.2911,1.02031 4.7604,3.10273 5.4319,7.69936 0.2628,1.798 0.3505,20.987925 0.2818,61.314225 l -0.1,58.69723 -0.8239,2.13365 c -1.4155,3.66665 -3.3862,4.78151 -8.4643,4.77777 -17.4308,-0.006 -38.0252,-8.85861 -49.7626,-21.39002 l -2.2502,-2.40245 4.9295,-1.0551 c 2.7111,-0.58033 5.0574,-1.17257 5.2142,-1.31657 0.1568,-0.14408 -1.1364,-1.61994 -2.8732,-3.27941 -3.5993,-3.43868 -11.052,-11.86367 -14.6735,-16.58741 -7.2767,-9.49144 -13.2254,-19.949 -17.6221,-30.98062 -0.9424,-2.3647 -1.7177,-4.17831 -1.7233,-4.03001 -0.01,0.14826 -0.5748,2.41951 -1.2644,5.0472 -3.6586,13.94294 -5.1732,23.47999 -5.4312,34.20153 -0.2754,11.44612 0.7117,18.63629 3.8816,28.28177 1.4515,4.41672 5.9142,14.63777 6.3912,14.63777 0.1432,0 1.3507,-2.06088 2.6835,-4.57984 1.3329,-2.51892 2.6172,-4.8824 2.8544,-5.25167 0.384,-0.59764 0.6625,-0.31096 2.5301,2.60832 4.8534,7.58637 10.5364,14.5308 15.8435,19.36075 9.3214,8.48344 17.0925,12.90207 34.9161,19.85149 11.8258,4.61081 15.8686,6.34884 20.868,8.97282 6.9852,3.6663 13.4636,8.11912 18.6414,12.81226 0.9452,0.85674 1.8599,1.55828 2.0325,1.55828 0.1726,0 1.0873,-0.70154 2.0325,-1.55828 5.1779,-4.69314 11.6569,-9.14596 18.6421,-12.81226 4.9994,-2.62398 9.0416,-4.36201 20.8673,-8.97282 17.8238,-6.94942 25.5955,-11.36805 34.9168,-19.85149 5.3071,-4.82995 10.9902,-11.77438 15.8436,-19.36075 1.8675,-2.91928 2.1453,-3.20596 2.5293,-2.60832 0.2372,0.36927 1.5222,2.73275 2.8551,5.25167 1.3329,2.51896 2.5404,4.57984 2.6835,4.57984 0.4769,0 4.9391,-10.22105 6.3905,-14.63777 3.17,-9.64548 4.157,-16.83561 3.8816,-28.28177 -0.258,-10.72154 -1.7725,-20.25855 -5.4311,-34.20153 -0.6896,-2.62769 -1.258,-4.89894 -1.2637,-5.0472 -0.01,-0.14825 -0.7817,1.66531 -1.7241,4.03001 -4.3968,11.03162 -10.3447,21.48913 -17.6214,30.98062 -3.6214,4.7237 -11.0749,13.14868 -14.6741,16.58741 -1.7368,1.65947 -3.0293,3.13538 -2.8726,3.27941 0.1569,0.14404 2.5032,0.73624 5.2143,1.31657 l 4.9287,1.0551 -2.2495,2.40245 c -11.8232,12.62304 -32.2955,21.37428 -50.0424,21.39146 -4.8742,0.004 -6.7641,-1.10673 -8.2019,-4.82522 l -0.8072,-2.08764 -0.1,-58.69723 c -0.069,-40.3263 0.02,-59.516285 0.2825,-61.314225 0.6715,-4.59668 2.1402,-6.6791 5.4312,-7.69936 1.0423,-0.32312 28.4244,-1.81604 33.5466,-1.82917 l 2.0067,-0.006 1.3871,2.4827 c 1.6736,2.99595 4.5371,6.07566 7.0428,7.57524 4.4033,2.63494 11.2852,3.43254 16.1869,1.87583 6.6267,-2.10455 12.4017,-7.84348 14.8542,-14.76264 1.1301,-3.18865 1.1301,-9.84626 0,-13.03492 -2.2894,-6.45916 -7.1003,-11.48309 -13.7344,-14.34283 -4.6744,-2.015 -12.5815,-1.37823 -17.1859,1.38445 -2.4914,1.49487 -5.5698,4.79507 -7.2084,7.7271 l -1.3472,2.41115 -2.7191,-0.20301 c -1.4955,-0.11146 -9.8999,-0.53779 -18.677,-0.94777 -10.4473,-0.48804 -16.5145,-0.9211 -17.5683,-1.25306 -4.8405,-1.52461 -5.949,-4.47412 -5.949,-15.83675 l 0,-6.504 1.5184,-0.60754 c 4.6312,-1.85345 8.9996,-4.78538 12.9129,-8.66613 19.5081,-19.34601 14.3404,-53.29883 -9.9658,-65.47571 -4.3863,-2.19753 -7.7626,-3.19687 -12.77,-3.77959 -1.3035,-0.1517 -2.6045,-0.23019 -3.9017,-0.23585 z m 0.06,21.99761 c 4.9309,0 8.5982,1.51518 12.0891,4.99609 9.6416,9.61438 6.1186,26.5282 -6.4242,30.84041 -7.3474,2.52605 -15.1744,0.0252 -19.7173,-6.29956 -8.7956,-12.24528 -0.569,-29.53694 14.0524,-29.53694 z"
       id="path4670"
       inkscape:connector-curvature="0"
       inkscape:export-xdpi="300"
       inkscape:export-ydpi="300" />
    <path
       style="opacity:1;fill:none;fill-opacity:0.07909606;stroke:#000000;stroke-width:20.00004196;stroke-linecap:round;stroke-miterlimit:4;stroke-dasharray:none;stroke-opacity:0.99494952"
       d="m -363.37217,908.56695 -0.18901,-982.13266 c -8.1e-4,-4.19496 3.37572,-7.582609 7.5707,-7.595617 l 977.1587,-3.029959 c 4.19488,-0.01301 7.57272,3.353698 7.57352,7.548658 l 0.18902,982.132658 c 8e-4,4.1949 -3.37573,7.58257 -7.57061,7.59558 l -977.1587,3.02996 c -4.19498,0.013 -7.57281,-3.35372 -7.57362,-7.54862 z"
       id="rect4679"
       inkscape:connector-curvature="0" />
    <path
       style="fill:none;fill-rule:evenodd;stroke:#000000;stroke-width:20;stroke-linecap:butt;stroke-linejoin:miter;stroke-miterlimit:4;stroke-dasharray:none;stroke-opacity:1"
       d="m -356.64404,423.40567 c 988.0903,-1.23076 985.6263,1.25481 985.6263,1.25481 l -2.4641,2.48557"
       id="path4701"
       inkscape:connector-curvature="0"
       inkscape:export-xdpi="300"
       inkscape:export-ydpi="300" />
    <path
       style="fill:none;fill-rule:evenodd;stroke:#000000;stroke-width:20;stroke-linecap:butt;stroke-linejoin:miter;stroke-miterlimit:4;stroke-dasharray:none;stroke-opacity:1"
       d="m 122.19996,-76.810575 c -2.0679,552.013045 0,994.257675 0,994.257675"
       id="path4736"
       inkscape:connector-curvature="0" />
    <text
       xml:space="preserve"
       style="font-style:normal;font-variant:normal;font-weight:bold;font-stretch:normal;font-size:80px;line-height:150%;font-family:sans-serif;-inkscape-font-specification:'sans-serif, Bold';text-align:start;letter-spacing:0px;word-spacing:0px;writing-mode:lr-tb;text-anchor:start;fill:#000000;fill-opacity:1;stroke:none;stroke-width:1px;stroke-linecap:butt;stroke-linejoin:miter;stroke-opacity:1"
       x="-383.4173"
       y="321.19858"
       id="text4738"
       sodipodi:linespacing="150%"
       transform="scale(0.89182892,1.1212913)"><tspan
         sodipodi:role="line"
         id="tspan4740"
         x="-383.4173"
         y="321.19858">Watershed</tspan></text>
    <text
       xml:space="preserve"
       style="font-style:normal;font-weight:normal;font-size:42.495121px;line-height:125%;font-family:sans-serif;letter-spacing:0px;word-spacing:0px;fill:#000000;fill-opacity:1;stroke:none;stroke-width:1px;stroke-linecap:butt;stroke-linejoin:miter;stroke-opacity:1"
       x="243.6938"
       y="337.49017"
       id="text4742"
       sodipodi:linespacing="125%"
       transform="scale(0.94128455,1.062378)"><tspan
         sodipodi:role="line"
         id="tspan4744"
         x="243.6938"
         y="337.49017"
         style="font-style:normal;font-variant:normal;font-weight:bold;font-stretch:normal;font-size:80px;line-height:125%;font-family:sans-serif;-inkscape-font-specification:'sans-serif, Bold';text-align:start;writing-mode:lr-tb;text-anchor:start">Harbor</tspan></text>
    <text
       xml:space="preserve"
       style="font-style:normal;font-weight:normal;font-size:40px;line-height:125%;font-family:sans-serif;letter-spacing:0px;word-spacing:0px;fill:#000000;fill-opacity:1;stroke:none;stroke-width:1px;stroke-linecap:butt;stroke-linejoin:miter;stroke-opacity:1"
       x="-262.16171"
       y="830.64343"
       id="text4746"
       sodipodi:linespacing="125%"><tspan
         sodipodi:role="line"
         id="tspan4748"
         x="-262.16171"
         y="830.64343"
         style="font-style:normal;font-variant:normal;font-weight:bold;font-stretch:normal;font-size:80px;line-height:125%;font-family:sans-serif;-inkscape-font-specification:'sans-serif, Bold';text-align:start;writing-mode:lr-tb;text-anchor:start">Beach</tspan></text>
    <text
       xml:space="preserve"
       style="font-style:normal;font-weight:normal;font-size:40px;line-height:125%;font-family:sans-serif;letter-spacing:0px;word-spacing:0px;fill:#000000;fill-opacity:1;stroke:none;stroke-width:1px;stroke-linecap:butt;stroke-linejoin:miter;stroke-opacity:1"
       x="202.317"
       y="834.12811"
       id="text4750"
       sodipodi:linespacing="125%"><tspan
         sodipodi:role="line"
         id="tspan4752"
         x="202.317"
         y="834.12811"
         style="font-style:normal;font-variant:normal;font-weight:bold;font-stretch:normal;font-size:80px;line-height:125%;font-family:sans-serif;-inkscape-font-specification:'sans-serif, Bold';text-align:start;writing-mode:lr-tb;text-anchor:start">Channel</tspan></text>
  </g>
</svg>
